<svg height="734" width="720" xmlns="http://www.w3.org/2000/svg">
<rect height="734" fill="#555" width="720"></rect>
<text fill="#7f7" font-family="Courier New" font-size="12" xml:space="preserve">
<tspan x="10" y="26">└─┬ live-reload@1.1.0 </tspan>
<tspan x="10" y="42">  ├─┬ browserify-server@2.0.4 </tspan>
<tspan x="10" y="58">  │ ├─┬ browserify@1.16.8 </tspan>
<tspan x="10" y="74">  │ │ ├─┬ buffer-browserify@0.0.5 </tspan>
<tspan x="10" y="90">  │ │ │ └── base64-js@0.0.2 </tspan>
<tspan x="10" y="106">  │ │ ├── coffee-script@1.12.4 </tspan>
<tspan x="10" y="122">  │ │ ├── commondir@0.0.2 </tspan>
<tspan x="10" y="138">  │ │ ├── crypto-browserify@0.4.0 </tspan>
<tspan x="10" y="154">  │ │ ├─┬ deputy@0.0.4 </tspan>
<tspan x="10" y="170">  │ │ │ └── mkdirp@0.3.5 </tspan>
<tspan x="10" y="186">  │ │ ├─┬ detective@0.2.1 </tspan>
<tspan x="10" y="202">  │ │ │ └── esprima@0.9.9 </tspan>
<tspan x="10" y="218">  │ │ ├─┬ http-browserify@0.1.14 </tspan>
<tspan x="10" y="234">  │ │ │ ├── Base64@0.1.4 </tspan>
<tspan x="10" y="250">  │ │ │ └─┬ concat-stream@1.0.1 </tspan>
<tspan x="10" y="266">  │ │ │   └─┬ bops@0.0.6 </tspan>
<tspan x="10" y="282">  │ │ │     └── to-utf8@0.0.1 </tspan>
<tspan x="10" y="298">  │ │ ├── nub@0.0.0 </tspan>
<tspan x="10" y="314">  │ │ ├── resolve@0.2.8 </tspan>
<tspan x="10" y="330">  │ │ ├── syntax-error@0.0.1 </tspan>
<tspan x="10" y="346">  │ │ └─┬ vm-browserify@0.0.4 </tspan>
<tspan x="10" y="362">  │ │   └── indexof@0.0.1 </tspan>
<tspan x="10" y="378">  │ └─┬ ecstatic@0.1.7 </tspan>
<tspan x="10" y="394">  │   ├── ent@0.0.7 </tspan>
<tspan x="10" y="410">  │   └── mime@1.2.5 </tspan>
<tspan x="10" y="426">  ├── filed@0.0.7 </tspan>
<tspan x="10" y="442">  ├── hound@1.0.5 </tspan>
<tspan x="10" y="458">  ├─┬ optimist@0.3.7 </tspan>
<tspan x="10" y="474">  │ └── wordwrap@0.0.3 </tspan>
<tspan x="10" y="490">  ├─┬ reconnect@0.1.5 </tspan>
<tspan x="10" y="506">  │ ├── backoff@1.0.0 </tspan>
<tspan x="10" y="522">  │ ├── h@0.1.0 </tspan>
<tspan x="10" y="538">  │ └─┬ shoe@0.0.15 </tspan>
<tspan x="10" y="554">  │   ├─┬ sockjs@0.3.7 </tspan>
<tspan x="10" y="570">  │   │ └── faye-websocket@0.4.4 </tspan>
<tspan x="10" y="586">  │   └── sockjs-client@0.0.0-unreleasable </tspan>
<tspan x="10" y="602">  ├─┬ shoe@0.0.5 </tspan>
<tspan x="10" y="618">  │ ├── sockjs-client@0.0.0-unreleasable  (git://github.com/substack/sockjs-client.git#40d48d06b\</tspan>
<tspan x="10" y="634">4dba884416bf88a051f76ca3c8ffcae)</tspan>
<tspan x="10" y="650">  │ └─┬ sockjs-windows@0.3.1 </tspan>
<tspan x="10" y="666">  │   ├── faye-websocket@0.4.0 </tspan>
<tspan x="10" y="682">  │   └── node-uuid@1.3.3 </tspan>
<tspan x="10" y="698">  └─┬ watchr@2.1.6 </tspan>
<tspan x="10" y="714">    └── bal-util@1.13.13</tspan>
</text>
</svg>
